####
#
# OBJ File Generated by Meshlab
#
####
# Object turbine_model.obj
#
# Vertices: 100
# Faces: 196
#
####
vn -2.151085 -3.983745 -0.381713
v -0.919559 -0.841846 -0.060314
vn -0.181553 -4.196691 0.591283
v -0.839337 -0.861284 -0.047989
vn 0.575009 -2.338186 -4.746360
v -0.780744 -0.733203 -0.226919
vn -2.336633 -2.063180 -3.551624
v -0.926550 -0.730381 -0.214479
vn 0.378952 -4.583608 -0.509976
v 0.038402 -0.798465 0.020864
vn 0.254142 -4.326508 0.554644
v -0.422991 -0.830490 -0.032370
vn 0.170935 -3.784323 4.569614
v 0.070579 -0.727311 0.123660
vn -2.493392 -3.123129 1.467133
v -1.102394 -0.639936 0.131843
vn 0.996367 -1.191153 -5.785553
v -0.119303 -0.695978 -0.078052
vn 0.411077 -3.379284 -4.049024
v 0.466941 -0.740253 0.002648
vn 0.580193 -3.615379 4.621737
v 0.748590 -0.671795 0.082099
vn 0.713545 -5.500136 1.679995
v 1.287018 -0.644500 0.017127
vn 0.359592 -3.978998 -3.428855
v 1.120265 -0.659795 -0.016938
vn -0.468643 0.586236 -5.264011
v -0.856286 -0.688511 -0.239405
vn 0.355360 -3.367532 5.289454
v -0.786615 -0.621126 0.117036
vn -0.761423 -4.181320 4.119176
v -0.770598 -0.562513 0.150832
vn 0.529969 -4.506666 -2.115732
v 1.921630 -0.567876 -0.031465
vn -2.614140 0.716671 -3.490111
v -1.027148 -0.570168 -0.145202
vn -0.178850 -0.419330 -6.131074
v 0.872803 -0.509101 -0.059864
vn -3.292765 -1.583863 1.416806
v -1.193702 -0.511950 0.212492
vn 0.219162 -3.434715 5.193626
v -0.886843 -0.429249 0.285468
vn -0.225970 3.773363 -5.007287
v -0.803936 -0.407347 -0.043616
vn 0.646673 -5.214900 1.865861
v 3.047607 -0.434225 -0.037140
vn 0.587305 -3.928566 4.341123
v 2.364040 -0.501875 -0.007474
vn 0.430159 -4.331682 -3.422467
v 2.926894 -0.443000 -0.067862
vn -1.520131 -1.075408 4.146985
v -1.035036 -0.410503 0.313053
vn -3.176590 1.170909 -2.590945
v -1.164919 -0.379504 0.009025
vn -0.042241 -0.998825 -5.955151
v 2.326258 -0.411928 -0.096501
vn 0.348611 -2.537363 5.427166
v -1.044081 -0.362875 0.309271
vn 0.330944 -2.186414 5.879342
v 2.039234 0.211187 0.297025
vn -2.096535 -2.458516 2.802444
v -1.131279 -0.356750 0.345559
vn 0.683380 -6.080973 -0.997695
v 3.571556 -0.373557 -0.065967
vn -3.118031 2.075932 -3.357708
v -1.126072 -0.189456 0.144779
vn 0.050108 0.972008 -6.144689
v 0.371443 -0.339168 -0.019218
vn 0.552962 -4.276882 2.231315
v 4.072166 -0.315557 -0.065652
vn 0.082225 2.266605 -5.746522
v -0.194792 -0.380758 -0.035923
vn 1.695536 -2.314697 5.306573
v -0.511276 -0.049476 0.504146
vn 0.664768 -3.491960 4.505074
v -1.034705 -0.308860 0.338750
vn 0.403241 -4.330671 -3.579840
v 4.153804 -0.298660 -0.100250
vn -2.656796 -1.806524 2.453095
v -1.208205 -0.198898 0.473835
vn 0.430293 -2.479271 5.621133
v -0.236112 -0.346955 0.309415
vn -0.230929 1.344303 -6.033649
v 3.602325 -0.162497 -0.113411
vn 0.493625 -4.478306 2.594349
v 4.713592 -0.243600 -0.079063
vn 0.419004 -4.793025 -2.697507
v 5.057722 -0.206348 -0.111890
vn 0.027947 -1.298507 -5.916046
v 4.767992 -0.176412 -0.139417
vn -5.397035 -0.140016 0.144727
v -1.233239 -0.131068 0.390443
vn -0.247297 2.959277 -5.517190
v 1.337488 0.064900 0.108529
vn 0.366880 -3.867330 -3.514435
v 5.673698 -0.137013 -0.136837
vn 0.561720 -4.580506 2.181886
v 5.925549 -0.113349 -0.116331
vn 0.559174 -3.873470 4.910605
v -0.815174 -0.050489 0.528388
vn 0.545747 -4.587456 1.569941
v 7.110330 0.015779 -0.150621
vn -2.437356 -0.869780 3.480966
v -1.102653 0.007791 0.616263
vn -3.314544 1.834588 -2.053318
v -1.211038 -0.021189 0.285116
vn 0.274387 -3.475581 -3.930996
v 6.438706 -0.049173 -0.161400
vn -0.249108 1.687100 -5.888917
v 4.640224 -0.062408 -0.129940
vn -0.175375 0.374191 -6.114940
v 6.211162 0.020525 -0.169606
vn -0.392711 2.829992 -5.544312
v 4.974097 0.047223 -0.104401
vn 0.277587 -3.493790 -4.171557
v 7.207049 0.037070 -0.181217
vn -0.399635 3.765477 -4.980383
v 4.904888 0.206740 0.004899
vn 0.621008 -4.515375 0.904240
v 8.131083 0.129731 -0.172735
vn 0.202982 -2.224848 -4.328934
v 7.964301 0.125973 -0.203861
vn -0.450323 3.395345 -5.265243
v -0.844534 0.114921 0.337168
vn -1.070295 4.358952 -1.004756
v -0.509469 0.385989 0.474815
vn 0.651437 0.440372 4.264123
v -0.768945 0.185670 0.714296
vn 0.345827 2.011742 4.163336
v 0.939192 0.530701 0.442652
vn 0.639751 -1.467756 -2.789104
v 8.593457 0.213135 -0.206448
vn -0.274885 2.573682 -5.550940
v 7.284334 0.214652 -0.163043
vn -0.401186 3.855367 -4.925810
v 5.382030 0.264988 0.012472
vn 1.950172 -2.935061 0.466299
v 8.659811 0.222785 -0.159281
vn -1.391962 0.845820 3.319245
v -0.994862 0.181021 0.716465
vn -2.004207 3.212031 -0.158462
v -1.031596 0.301638 0.521026
vn -0.227481 4.211864 -4.630903
v 2.808217 0.354078 0.245099
vn 0.427168 0.173105 6.093416
v -0.338517 0.412213 0.491862
vn -0.061924 0.840625 0.597683
v 4.965195 0.474693 0.252485
vn 1.389519 -0.059018 -0.643601
v 8.734701 0.315219 -0.158989
vn 0.185108 4.761380 -1.860036
v 0.813463 0.543684 0.429976
vn 0.078789 1.441664 3.379607
v 5.684136 0.501302 0.225197
vn 0.244521 1.380203 3.657209
v 3.753026 0.451686 0.310792
vn 0.195319 0.970587 4.444890
v 4.489165 0.460030 0.276870
vn -0.036470 1.859768 1.169450
v 4.078658 0.454330 0.287671
vn 0.206185 0.863503 4.645348
v 7.569642 0.553360 0.138507
vn 0.216920 1.749753 1.587942
v 1.447433 0.507290 0.420757
vn -0.055327 5.178262 -1.739529
v 3.341802 0.455940 0.316502
vn 0.111168 1.279951 0.898300
v 2.389797 0.465218 0.377230
vn -1.574188 4.231624 -2.500751
v -0.149530 0.551952 0.468681
vn -0.007805 1.247950 0.863180
v 2.934286 0.454977 0.348784
vn 0.136558 1.484490 1.148108
v 1.879217 0.484338 0.401823
vn -0.117904 4.331478 -1.977891
v 0.025264 0.581604 0.466730
vn 0.151568 1.359204 4.165205
v 6.832351 0.530401 0.169335
vn 0.275928 1.227790 3.733102
v 8.361835 0.574685 0.097389
vn -0.330583 5.144609 -1.605928
v 5.241789 0.488534 0.226841
vn 0.160431 1.458283 3.905588
v 6.167778 0.512586 0.202846
vn -0.405621 2.373220 1.801290
v -0.086398 0.577683 0.500968
vn 1.146713 0.961599 1.679517
v 8.681866 0.560015 0.058545
vn -0.213740 5.048772 -1.430735
v 5.827902 0.512486 0.193614
vn -0.217935 4.869822 -1.091451
v 6.877203 0.543653 0.142568
vn 0.374500 5.137535 2.289798
v 0.564226 0.556268 0.457006
vn 1.984820 1.446743 -0.685975
v 8.717384 0.546323 -0.017873
vn -0.117986 4.652871 0.154814
v 7.651661 0.572994 0.113505
vn 0.044212 4.786573 -0.968217
v 8.414053 0.593515 0.049399
# 100 vertices, 0 vertices normals

f 1//1 3//3 2//2
f 8//8 1//1 2//2
f 2//2 3//3 6//6
f 4//4 3//3 1//1
f 15//15 8//8 2//2
f 3//3 5//5 6//6
f 6//6 15//15 2//2
f 8//8 4//4 1//1
f 7//7 6//6 5//5
f 9//9 5//5 3//3
f 5//5 9//9 10//10
f 11//11 7//7 5//5
f 14//14 3//3 4//4
f 12//12 5//5 10//10
f 12//12 11//11 5//5
f 13//13 12//12 10//10
f 41//41 6//6 7//7
f 18//18 14//14 4//4
f 14//14 9//9 3//3
f 11//11 41//41 7//7
f 15//15 16//16 8//8
f 16//16 15//15 6//6
f 34//34 10//10 9//9
f 13//13 17//17 12//12
f 19//19 13//13 10//10
f 14//14 36//36 9//9
f 18//18 4//4 8//8
f 16//16 21//21 8//8
f 36//36 34//34 9//9
f 28//28 17//17 13//13
f 34//34 19//19 10//10
f 18//18 27//27 14//14
f 27//27 22//22 14//14
f 6//6 21//21 16//16
f 17//17 24//24 12//12
f 31//31 20//20 8//8
f 19//19 28//28 13//13
f 24//24 11//11 12//12
f 21//21 26//26 8//8
f 8//8 20//20 18//18
f 25//25 23//23 17//17
f 23//23 24//24 17//17
f 28//28 25//25 17//17
f 27//27 18//18 20//20
f 29//29 26//26 21//21
f 37//37 21//21 6//6
f 35//35 24//24 23//23
f 29//29 8//8 26//26
f 32//32 23//23 25//25
f 28//28 39//39 25//25
f 29//29 31//31 8//8
f 25//25 39//39 32//32
f 22//22 36//36 14//14
f 34//34 28//28 19//19
f 27//27 33//33 22//22
f 35//35 23//23 32//32
f 33//33 27//27 20//20
f 31//31 33//33 20//20
f 41//41 37//37 6//6
f 37//37 29//29 21//21
f 33//33 36//36 22//22
f 65//65 73//73 11//11
f 73//73 41//41 11//11
f 32//32 39//39 35//35
f 29//29 38//38 31//31
f 50//50 38//38 29//29
f 30//30 65//65 11//11
f 24//24 30//30 11//11
f 50//50 31//31 38//38
f 35//35 30//30 24//24
f 43//43 35//35 39//39
f 28//28 45//45 39//39
f 28//28 34//34 42//42
f 42//42 45//45 28//28
f 44//44 43//43 39//39
f 45//45 44//44 39//39
f 50//50 40//40 31//31
f 40//40 46//46 31//31
f 47//47 42//42 34//34
f 46//46 33//33 31//31
f 45//45 48//48 44//44
f 50//50 52//52 40//40
f 49//49 43//43 44//44
f 48//48 49//49 44//44
f 40//40 52//52 46//46
f 42//42 55//55 45//45
f 37//37 50//50 29//29
f 62//62 36//36 33//33
f 64//64 50//50 37//37
f 36//36 47//47 34//34
f 53//53 62//62 33//33
f 48//48 54//54 49//49
f 45//45 56//56 48//48
f 53//53 33//33 46//46
f 56//56 54//54 48//48
f 55//55 56//56 45//45
f 54//54 51//51 49//49
f 30//30 35//35 43//43
f 73//73 37//37 41//41
f 47//47 55//55 42//42
f 71//71 53//53 46//46
f 64//64 52//52 50//50
f 54//54 58//58 51//51
f 56//56 58//58 54//54
f 57//57 56//56 55//55
f 49//49 92//92 43//43
f 56//56 61//61 58//58
f 59//59 57//57 55//55
f 47//47 59//59 55//55
f 62//62 63//63 36//36
f 67//67 56//56 57//57
f 67//67 61//61 56//56
f 58//58 60//60 51//51
f 74//74 30//30 43//43
f 61//61 60//60 58//58
f 57//57 68//68 67//67
f 64//64 70//70 52//52
f 71//71 46//46 52//52
f 51//51 81//81 49//49
f 61//61 66//66 60//60
f 47//47 72//72 59//59
f 59//59 68//68 57//57
f 63//63 85//85 36//36
f 70//70 71//71 52//52
f 53//53 63//63 62//62
f 60//60 66//66 69//69
f 92//92 74//74 43//43
f 66//66 75//75 69//69
f 67//67 66//66 61//61
f 69//69 51//51 60//60
f 73//73 64//64 37//37
f 85//85 47//47 36//36
f 69//69 90//90 51//51
f 71//71 63//63 53//53
f 76//76 72//72 47//47
f 63//63 70//70 64//64
f 82//82 65//65 30//30
f 63//63 71//71 70//70
f 90//90 81//81 51//51
f 73//73 63//63 64//64
f 98//98 66//66 67//67
f 80//80 78//78 30//30
f 74//74 59//59 72//72
f 80//80 74//74 72//72
f 75//75 94//94 69//69
f 78//78 86//86 30//30
f 91//91 68//68 59//59
f 74//74 79//79 30//30
f 86//86 84//84 30//30
f 79//79 80//80 30//30
f 77//77 74//74 92//92
f 85//85 88//88 47//47
f 74//74 91//91 59//59
f 81//81 89//89 49//49
f 89//89 92//92 49//49
f 86//86 83//83 72//72
f 76//76 82//82 72//72
f 98//98 75//75 66//66
f 93//93 73//73 65//65
f 83//83 80//80 72//72
f 87//87 84//84 72//72
f 84//84 86//86 72//72
f 82//82 87//87 72//72
f 100//100 98//98 67//67
f 88//88 97//97 76//76
f 91//91 95//95 68//68
f 84//84 87//87 30//30
f 88//88 76//76 47//47
f 93//93 63//63 73//73
f 78//78 83//83 86//86
f 93//93 85//85 63//63
f 80//80 79//79 74//74
f 83//83 78//78 80//80
f 97//97 93//93 65//65
f 77//77 91//91 74//74
f 98//98 94//94 75//75
f 87//87 82//82 30//30
f 95//95 96//96 68//68
f 94//94 90//90 69//69
f 68//68 100//100 67//67
f 91//91 77//77 95//95
f 92//92 95//95 77//77
f 96//96 99//99 68//68
f 96//96 95//95 92//92
f 89//89 96//96 92//92
f 68//68 99//99 100//100
f 76//76 65//65 82//82
f 76//76 97//97 65//65
f 99//99 89//89 81//81
f 99//99 96//96 89//89
f 100//100 81//81 90//90
f 97//97 88//88 93//93
f 93//93 88//88 85//85
f 100//100 99//99 81//81
f 100//100 90//90 94//94
f 100//100 94//94 98//98
# 196 faces, 0 coords texture

# End of File
